<svg xmlns="http://www.w3.org/2000/svg" aria-hidden="true" viewBox="0 0 412 405"><rect width="412" height="405" fill="url(#a)" fill-opacity=".7"/><path fill="url(#b)" d="M206.1 65.4c-4.8 0-9.2 2.9-11 7.4l-23.6 60.3H96.8c-8 0-12.7 9.3-8.4 15.9l96 151.2c4 6.4 13.7 6.4 17.7 0l96-151.2c4.3-6.6-.4-15.9-8.4-15.9H261l-23.6-60.3a12.1 12.1 0 0 0-11.3-7.4z"/><path fill="url(#c)" d="M206.1 65.4c4.8 0 9.2 2.9 11 7.4l23.6 60.3h74.7c8 0 12.7 9.3 8.4 15.9l-96 151.2c-4 6.4-13.7 6.4-17.7 0l-96-151.2c-4.3-6.6.4-15.9 8.4-15.9h74.7l23.6-60.3a12.1 12.1 0 0 1 11.3-7.4Z"/><defs><linearGradient id="a" x1="106" x2="306" y1="24" y2="381" gradientUnits="userSpaceOnUse"><stop stop-color="#41D1FF"/><stop offset="1" stop-color="#BD34FE"/></linearGradient><linearGradient id="b" x1="206" x2="206" y1="82" y2="395" gradientUnits="userSpaceOnUse"><stop stop-color="#F9F871"/><stop offset=".46" stop-color="#FDC856"/><stop offset="1" stop-color="#FF7A82"/></linearGradient><linearGradient id="c" x1="206" x2="206" y1="82" y2="395" gradientUnits="userSpaceOnUse"><stop stop-color="#F9F871"/><stop offset=".46" stop-color="#FDC856"/><stop offset="1" stop-color="#FF7A82"/></linearGradient></defs></svg>
